<mxfile host="app.diagrams.net" modified="2024-05-17T07:25:18.804Z" agent="Mozilla/5.0 (Windows NT 10.0; Win64; x64) AppleWebKit/537.36 (KHTML, like Gecko) Chrome/124.0.0.0 Safari/537.36 Edg/124.0.0.0" version="24.2.5" etag="PTkPKs0S2mdFE-FFBiKs" type="github">
  <diagram name="Page-1" id="-1P4jMJmblwkAoj9dv4A">
    <mxGraphModel>
      <root>
        <mxCell id="0" />
        <mxCell id="1" parent="0" />
      </root>
    </mxGraphModel>
  </diagram>
</mxfile>
